PathFileType	4	(X/Y/Z)	S00_P01_T02_Participants1-2_P1_0-100.trc
DataRate	CameraRate	NumFrames	NumMarkers	Units	OrigDataRate	OrigDataStartFrame	OrigNumFrames
60	60	8	21	m	60	75	100
Frame#	Time	RHip			RKnee			RAnkle			RBigToe			RSmallToe			RHeel			LHip			LKnee			LAnkle			LBigToe			LSmallToe			LHeel			Neck			Head			Nose			RShoulder			RElbow			RWrist			LShoulder			LElbow			LWrist		
		X1	Y1	Z1	X2	Y2	Z2	X3	Y3	Z3	X4	Y4	Z4	X5	Y5	Z5	X6	Y6	Z6	X7	Y7	Z7	X8	Y8	Z8	X9	Y9	Z9	X10	Y10	Z10	X11	Y11	Z11	X12	Y12	Z12	X13	Y13	Z13	X14	Y14	Z14	X15	Y15	Z15	X16	Y16	Z16	X17	Y17	Z17	X18	Y18	Z18	X19	Y19	Z19	X20	Y20	Z20	X21	Y21	Z21
76	1.2666666666666666	-1.0509667671778486	0.9001432868259318	-0.9744017931239983	-0.8757672592317083	0.8895188140057747	-0.7314037039349172	-0.8566129585967468	0.8549760938003812	-0.9635260204778501	-0.7526299191120968	0.8482825201908688	-1.0311410145658657	-0.7754891906948693	0.8277189844437587	-1.0268004304418588	-0.8743857331144014	0.8590621869659669	-1.0081223164899666	-1.0515256000492366	0.9007618884667765	-1.1185787551563309	-0.8779884966064527	0.8920093385868291	-1.3568175011435484	-0.8896757281850372	0.8699439496359996	-1.1239491220476543	-0.7891626723626385	0.8617344053227458	-1.058011799201388	-0.812894447137176	0.8419434042977452	-1.0618844807457017	-0.9114871298173911	0.8765844586411814	-1.0793647775915935	-1.0726557073439733	1.3101008914738994	-1.0458858315885728	-1.0377862464382626	1.4677209767515325	-1.058085645090861	-0.9873811464436784	1.373264210265442	-1.0445265921966986	-1.079873136538363	1.2570327167775086	-0.9139136957820492	-1.0442634056118387	1.096859837129019	-0.8075603509253221	-0.9085418226318985	0.985690072204248	-0.8900637667614182	-1.0807982794893007	1.258107805757705	-1.1783852726781279	-1.0443474318619168	1.0857645528330366	-1.264703679452262	-0.904584258247786	0.9952339191813816	-1.159978601957532
77	1.2833333333333334	-1.0509712366401018	0.9029800825681241	-0.974397501696581	-0.8757728279548831	0.8923550003753249	-0.7313939001326171	-0.8577413471930385	0.8582951339592653	-0.963666840592861	-0.7540710339260731	0.8516655811812343	-1.0317731179980747	-0.7769242163220603	0.8311088046602071	-1.0273702732606884	-0.87570793964286	0.8624823310666524	-1.0081765420008284	-1.0515295017603474	0.9035984200784228	-1.1185747685389735	-0.8779907892455107	0.8948447613939213	-1.356811111862006	-0.8896791479318411	0.8727798661038358	-1.1239424461842071	-0.7891662924102745	0.8645701378469757	-1.0580029422252948	-0.8128980820291083	0.8447790585959645	-1.0618761012742401	-0.911490812946747	0.8794205474063235	-1.0793582722388146	-1.0726612047739335	1.3129406496990272	-1.0458785194310505	-1.037799968775925	1.4705523471349526	-1.0580923764952084	-0.9873865746492991	1.376104083618805	-1.0445176984016404	-1.0798788253116562	1.2598723735955317	-0.913908164433672	-1.0440191139458879	1.098544374818968	-0.8091424289415096	-0.9070204182124131	0.9891660321768188	-0.891901835694464	-1.08080313769248	1.260946802901303	-1.1783775013836217	-1.0443511141879822	1.0886019154476172	-1.2646975233001556	-0.9045332320973964	0.9995703534503969	-1.1585785973739784
78	1.3	-1.0509759584758225	0.9059757313993966	-0.9743929634679893	-0.8757787084325003	0.8953500033344615	-0.731383560622849	-0.8589331718591341	0.8618011323253161	-0.9638089648512438	-0.7555953983013207	0.8552404467629192	-1.0324323717351802	-0.7784418496930201	0.8346906740965582	-1.0279637902399466	-0.8771039243345113	0.8660950455395079	-1.00822603610835	-1.0515336243920796	0.9065937895474477	-1.118570542363847	-0.8779932100970187	0.8978389577267972	-1.3568043400802239	-0.889682758691023	0.8757745846025741	-1.1239353874867213	-0.7891701132827662	0.8675646613760405	-1.0579935881147142	-0.8129019184257301	0.8477734996377277	-1.0618672507491813	-0.9114947022782925	0.8824154481164351	-1.079351395274784	-1.0726670276307881	1.3159394273874623	-1.0458707525384972	-1.0378144550856185	1.4735422511422618	-1.0580994576105325	-0.9873923252751049	1.3791029821768894	-1.0445082655315026	-1.0798848469552795	1.262871045051459	-0.9139022961517844	-1.0437638399732048	1.1003404178731047	-0.8108238905228979	-0.9054302782160515	0.9928549056148278	-0.8938145827821337	-1.0808082843040394	1.263944776148145	-1.178369240406395	-1.0443550116568705	1.0915981618386426	-1.2646909802241382	-0.9044950611720008	1.0041603644931474	-1.1571117299618563
79	1.3166666666666667	-1.0509809077432284	0.9091141470598366	-0.9743882016448043	-0.8757848691390689	0.8984877397017124	-0.7313727429954029	-0.8601820362315263	0.8654754177069558	-0.9639506063585745	-0.757195176954937	0.8589882691500507	-1.0331139389175608	-0.7800342451999454	0.8384456864238293	-1.0285765010148187	-0.8785661092901977	0.869881075419073	-1.0082693283592579	-1.0515379462797314	0.90973191204178	-1.1185660965922584	-0.8779957462299202	0.900975848702633	-1.3567972181308583	-0.8896865410813259	0.8789120235830311	-1.1239279823370272	-0.7891741142420025	0.8707018952975547	-1.057983786857384	-0.8129059354821312	0.8509106472719428	-1.0618579763443434	-0.9114987770031072	0.8855530782859355	-1.0793441823686614	-1.0726731475181874	1.319081121537862	-1.0458625652751639	-1.0378296269249565	1.4766746309229115	-1.0581068459178307	-0.9873983704466014	1.382244802179883	-1.0444983376041141	-1.079891171486382	1.266012628851503	-0.9138961179485486	-1.0434993971366038	1.1022410567122922	-0.8125971681128146	-0.9037826112579652	0.9967388447524409	-0.8957871438649899	-1.0808136943682545	1.2670856267029866	-1.1783605253098315	-1.0443591048230798	1.0947372023683635	-1.264684078512574	-0.9044723884867981	1.008980778196656	-1.155587839258872
80	1.3333333333333333	-1.0509860582780848	0.9123784741544076	-0.9743832406616402	-0.8757912770448194	0.9017513574713546	-0.7313615072808367	-0.8614812246346015	0.8692983970199868	-0.964090047775743	-0.7588620898666898	0.8628892399368618	-1.0338129425606701	-0.7816931191453458	0.8423539750083946	-1.029203902307315	-0.8800865516178263	0.8738202164328246	-1.0083050616984939	-1.0515424446862822	0.9129959336720755	-1.1185614524804606	-0.8779983841197364	0.9042385867181628	-1.3567897804326547	-0.8896904748245587	0.8821753326286021	-1.1239202690410528	-0.7891782736188164	0.8739649901941646	-1.057973590844836	-0.8129101114208279	0.8541736525617635	-1.0618483275166355	-0.9115030153366157	0.8888165865109418	-1.079336671040809	-1.0726795342983373	1.3223488591986308	-1.0458539946474872	-1.0378454022139287	1.4799326612173582	-1.0581144974495054	-0.98740468055203	1.385512669898132	-1.0444879616527742	-1.0798977671795984	1.2692802527663127	-0.9138896587077123	-1.0432276266258607	1.1042386576135779	-0.8144540333248269	-0.9020887952008814	1.0007985275675375	-0.8978045905176953	-1.0808193413811382	1.2703524860392974	-1.1783513945704125	-1.0443633732125832	1.0980021781122302	-1.2646768487374145	-0.9044676105295684	1.0140070166831001	-1.1540169975202619
81	1.35	-1.050991382837497	0.9157511862717915	-0.9743781060622146	-0.8757978978358392	0.9051233336666937	-0.73134991556158	-0.862823741401972	0.8732496660998742	-0.9642256714826015	-0.7605874539571545	0.8669226982303302	-1.0345245195796204	-0.7834097923834854	0.8463948218288273	-1.0298415196949733	-0.8816569916060059	0.8778914296276277	-1.008332024077722	-1.0515470959250415	0.9163683296032297	-1.118556632510237	-0.8780011097255151	0.907609653531498	-1.3567820633699592	-0.889694538863097	0.8855469905507272	-1.1239122876361198	-0.7891825689431151	0.8773364259353454	-1.057963054572331	-0.8129144236629876	0.8575449958732351	-1.0618383557252673	-0.9115073946435299	0.8921884505696556	-1.0793289004694782	-1.0726861562104217	1.325725095687847	-1.0458450802343313	-1.037861695725359	1.4832988473485045	-1.058122367135016	-0.9874112243550961	1.3888890398587408	-1.0444771875840813	-1.0799046007049797	1.2726563728439706	-0.9138829491059638	-1.0429503776510072	1.106324852781465	-0.8163856168429573	-0.9003602574671632	1.0050132373100522	-0.8998521165481072	-1.080825197391454	1.273727814095654	-1.1783418895280648	-1.0443677952440262	1.1013755590274834	-1.2646693237100786	-0.9044828144696128	1.0192132124914302	-1.1524094116583532
82	1.3666666666666667	-1.0509968532196021	0.9192141692320585	-0.9743728244030749	-0.8758046960456904	0.9085855578309189	-0.7313380316367013	-0.8642023447887554	0.8773081043258293	-0.9643559865716977	-0.76236221872773	0.8710672230644572	-1.0352438686814167	-0.7851752267819258	0.8505467505269112	-1.0304849535464051	-0.8832688943881902	0.8820729392572046	-1.0083491768527526	-1.0515518754611812	0.9198309872960067	-1.1185516603376249	-0.878003908553145	0.9110709434790816	-1.356774105199715	-0.8896987114579193	0.8890088886171609	-1.1239040797319746	-0.7891869770531422	0.8807980949026595	-1.0579522343858296	-0.812918848938636	0.861006570097848	-1.0618281141953487	-0.9115118915421019	0.8956505606547355	-1.079320911330895	-1.072692979964434	1.3291916979269116	-1.0458358641438603	-1.037878419501158	1.4867551083647075	-1.0581304091054509	-0.9874179690838021	1.3923557781850402	-1.044466068071405	-1.0799116372392856	1.2761228567374834	-0.9138760215577466	-1.0426694898281623	1.1084905267554734	-0.8183824277686844	-0.8986083680423894	1.009360944539721	-0.9019152064154109	-1.0808312330800351	1.2771934825895672	-1.1783320543624116	-1.0443723483807081	1.1048392272091911	-1.2646615384614581	-0.9045197219606427	1.024572307473478	-1.1507753336850959
83	1.3833333333333333	-1.0510024404110865	0.9227488222003313	-0.9743674231295634	-0.8758116352640122	0.9121194330063405	-0.7313259206331723	-0.8656095887351486	0.8814519904960909	-0.9644796535725254	-0.7641770130042477	0.8753007479026242	-1.0359662984898952	-0.7869800726416443	0.8547876415741549	-1.031129924774978	-0.8849135005075911	0.8863423526159704	-1.0083556797442323	-1.0515567580375844	0.9233653076128445	-1.1185465607117173	-0.8780067657315913	0.9146038645487754	-1.3567659459092603	-0.8897029703066971	0.8925424316398577	-1.1238956883073425	-0.7891914742255357	0.8843314030730737	-1.0579411881735645	-0.8129233634177017	0.8645397817327253	-1.0618176576289167	-0.9115164820303066	0.8991843204664783	-1.0793127455967104	-1.0726999708759741	1.3327300456593065	-1.0458263909072503	-1.0378954833523164	1.490282878007157	-1.0581385770313192	-0.9874248805602571	1.3958942638215293	-1.0444546583764833	-1.0799188406180436	1.2796610849170924	-0.9138689101163425	-1.0423867748235751	1.1107258200536996	-0.8204343926103743	-0.8968443279694561	1.0138184340393286	-0.9039798038781689	-1.0808374178754863	1.2807308762112255	-1.178321935998833	-1.0443770093207216	1.1083745780135348	-1.2646535301674497	-0.9045796404566426	1.0300561883333723	-1.1491249645336643
